<?xml version="1.0" encoding="utf-8"?>
<!-- Generator: Adobe Illustrator 24.2.3, SVG Export Plug-In . SVG Version: 6.00 Build 0)  -->
<svg version="1.1" id="Capa_1" xmlns="http://www.w3.org/2000/svg" xmlns:xlink="http://www.w3.org/1999/xlink" x="0px" y="0px"
	 viewBox="0 0 1053.68 140.22" style="enable-background:new 0 0 1053.68 140.22;" xml:space="preserve">
<style type="text/css">
	.st0{fill:#BFB7B6;}
	.st1{fill:#F5F4F5;}
	.st2{stroke:#000000;stroke-width:4;stroke-miterlimit:10;}
</style>
<g>
	<path d="M114.8,88.87l17.04,27.47h-28l-14.92-24.7h-38.3v24.7H26.84V23.88h72.64c21,0,35.4,13.34,35.4,33.94
		C134.88,72.88,127.22,83.98,114.8,88.87z M50.61,71.69h42.27c7.13,0,18.23,0,18.23-13.87c0-14-11.1-14-18.23-14H50.61V71.69z"/>
	<path d="M171.73,42.77v18.75h73.96v17.17h-73.96v18.75h73.96v18.89h-97.74V23.88h97.74v18.89H171.73z"/>
	<path d="M349.65,96.66h-55.34l-9.91,19.68h-26.15l47.68-92.45h32.09l47.81,92.45h-26.28L349.65,96.66z M340.8,78.96l-18.76-37.51
		l-18.89,37.51H340.8z"/>
	<path d="M443.03,22.56c36.85,0,55.34,14,57.72,40.68h-24.17c-2.25-14.93-13.74-20.74-33.55-20.74c-24.17,0-34.34,8.59-34.34,27.47
		c0,19.02,10.3,27.74,34.34,27.74c19.68,0,31.3-5.94,33.55-21h24.17c-2.38,26.81-20.87,40.94-57.72,40.94
		c-40.68,0-58.11-16.91-58.11-47.68C384.92,39.34,402.35,22.56,443.03,22.56z"/>
	<path d="M620.95,43.83h-44.91v72.51h-23.77V43.83h-44.91V23.88h113.59V43.83z"/>
	<path d="M657.8,43.83v23.51h66.04v20.08H657.8v28.93h-23.77V23.88h97.74v19.94H657.8z"/>
	<path d="M839.94,96.39v19.94h-95.1V23.88h23.77v72.51H839.94z"/>
	<path d="M878.25,116.34h-23.77V23.88h23.77V116.34z"/>
	<path d="M942.57,70.11l-52.04-46.23h32.76l35.4,31.7l35.27-31.7h32.89L974.8,70.11l52.04,46.23h-32.89l-35.27-31.7l-35.4,31.7
		h-32.76L942.57,70.11z"/>
</g>
</svg>
