<?xml version="1.0" encoding="utf-8"?>
<!-- Generator: Adobe Illustrator 24.2.3, SVG Export Plug-In . SVG Version: 6.00 Build 0)  -->
<svg version="1.1" id="Capa_1" xmlns="http://www.w3.org/2000/svg" xmlns:xlink="http://www.w3.org/1999/xlink" x="0px" y="0px"
	 viewBox="0 0 206.43 199.25" style="enable-background:new 0 0 206.43 199.25;" xml:space="preserve">
<style type="text/css">
	.st0{fill:#BFB7B6;}
	.st1{fill:#F5F4F5;}
	.st2{stroke:#000000;stroke-width:4;stroke-miterlimit:10;}
</style>
<path d="M189.76,170.05l-48.93-48.79c3.92-5.38,7.04-11.24,9.3-17.49c2.75-7.61,4.14-15.6,4.14-23.75
	c0-38.76-31.61-70.28-70.47-70.28S13.32,41.26,13.32,80.02S44.94,150.3,83.8,150.3c8.04,0,15.93-1.35,23.45-4
	c6.18-2.18,12-5.2,17.34-9l49.02,48.88c2.16,2.15,5.02,3.34,8.07,3.34c3.05,0,5.92-1.18,8.07-3.34c2.16-2.15,3.35-5.02,3.35-8.07
	C193.11,175.07,191.92,172.2,189.76,170.05z M131.42,80.02c0,26.18-21.36,47.48-47.62,47.48s-47.62-21.3-47.62-47.48
	S57.54,32.54,83.8,32.54S131.42,53.84,131.42,80.02z"/>
</svg>
